# xmcd CD database file
#
# Track frame offsets:
#	150
#	9724
#	40158
#	70247
#	104363
#	130708
#	147271
#	186541
#	209452
#	232492
#	247836
#	277000
#	315610
#
# Disc length: 4387 seconds
#
# Revision: 0
# Processed by: cddbd v1.5.2PL0 Copyright (c) Steve Scherf et al.
# Submitted via: CDex 1.70beta2
#
DISCID=c711210d
DTITLE=Joshua Redman - Compass
DYEAR=1900
DGENRE=Jazz
TTITLE0=Uncharted
TTITLE1=Faraway
TTITLE2=Identity Thief
TTITLE3=Just Like You
TTITLE4=Hutchhiker's Guide
TTITLE5=Ghost
TTITLE6=Insomnomaniac
TTITLE7=Moonlight
TTITLE8=Un Peu Fou
TTITLE9=March
TTITLE10=Round Reuben
TTITLE11=Little Ditty
TTITLE12=Through the Valley
EXTD=
EXTT0=
EXTT1=
EXTT2=
EXTT3=
EXTT4=
EXTT5=
EXTT6=
EXTT7=
EXTT8=
EXTT9=
EXTT10=
EXTT11=
EXTT12=
PLAYORDER=
